<svg xmlns="http://www.w3.org/2000/svg" viewBox="0 0 800 560"><rect width="800" height="560" fill="#e4a448"/><rect x="55" y="55" width="690" height="450" fill="#be5a4c"/><path d="M180 330q-90-80-12-155m12 155q98-55 130-140m-130 140q115 55 190 28m-190-28q60 92 163 87m27-87q100 28 168-43m-168 43q38 112 145 120m-145-120q-42 82-130 88" fill="none" stroke="#f2eadb" stroke-width="28" stroke-linecap="round"/><circle cx="180" cy="330" r="19" fill="#f2eadb"/><circle cx="310" cy="190" r="19" fill="#f2eadb"/><circle cx="500" cy="330" r="19" fill="#f2eadb"/><circle cx="360" cy="446" r="19" fill="#f2eadb"/><text x="30" y="37" fill="#183c34" font-family="monospace" font-size="20" letter-spacing="4">SCENE STUDY / DANCE</text></svg>
